# Tiled2Unity generated file. Do not modify by hand.
# Wavefront file for 'Fase1_mesh_0013.obj'

# Vertices (Count = 12)
v -5888 -2688 0
v -6016 -2688 0
v -6016 -2560 0
v -5888 -2560 0
v -6016 -2688 0
v -6144 -2688 0
v -6144 -2560 0
v -6016 -2560 0
v -6144 -2688 0
v -6272 -2688 0
v -6272 -2560 0
v -6144 -2560 0

# Texture cooridinates (Count = 4)
vt 0 0
vt 1 0
vt 1 1
vt 0 1

# Normal
vn 0 0 -1

# Mesh description
g Fase1_mesh_0013

# Faces
f 1/1/1 2/2/1 3/3/1 4/4/1
f 5/1/1 6/2/1 7/3/1 8/4/1
f 9/1/1 10/2/1 11/3/1 12/4/1

