# Tiled2Unity generated file. Do not modify by hand.
# Wavefront file for 'Fase1_mesh_0015.obj'

# Vertices (Count = 64)
v -3712 -2944 0
v -3839 -2944 0
v -3839 -2817 0
v -3712 -2817 0
v -3840 -2944 0
v -3967 -2944 0
v -3967 -2817 0
v -3840 -2817 0
v -3968 -2944 0
v -4095 -2944 0
v -4095 -2817 0
v -3968 -2817 0
v -4096 -2944 0
v -4223 -2944 0
v -4223 -2817 0
v -4096 -2817 0
v -13952 -2944 0
v -14079 -2944 0
v -14079 -2817 0
v -13952 -2817 0
v -14080 -2944 0
v -14207 -2944 0
v -14207 -2817 0
v -14080 -2817 0
v -14208 -2944 0
v -14335 -2944 0
v -14335 -2817 0
v -14208 -2817 0
v -14336 -2944 0
v -14463 -2944 0
v -14463 -2817 0
v -14336 -2817 0
v -14464 -2944 0
v -14591 -2944 0
v -14591 -2817 0
v -14464 -2817 0
v -14592 -2944 0
v -14719 -2944 0
v -14719 -2817 0
v -14592 -2817 0
v -14720 -2944 0
v -14847 -2944 0
v -14847 -2817 0
v -14720 -2817 0
v -14848 -2944 0
v -14975 -2944 0
v -14975 -2817 0
v -14848 -2817 0
v -14976 -2944 0
v -15103 -2944 0
v -15103 -2817 0
v -14976 -2817 0
v -15104 -2944 0
v -15231 -2944 0
v -15231 -2817 0
v -15104 -2817 0
v -15232 -2944 0
v -15359 -2944 0
v -15359 -2817 0
v -15232 -2817 0
v -15360 -2944 0
v -15487 -2944 0
v -15487 -2817 0
v -15360 -2817 0

# Texture cooridinates (Count = 4)
vt 0 0
vt 1 0
vt 1 1
vt 0 1

# Normal
vn 0 0 -1

# Mesh description
g Fase1_mesh_0015

# Faces
f 1/1/1 2/2/1 3/3/1 4/4/1
f 5/1/1 6/2/1 7/3/1 8/4/1
f 9/1/1 10/2/1 11/3/1 12/4/1
f 13/1/1 14/2/1 15/3/1 16/4/1
f 17/1/1 18/2/1 19/3/1 20/4/1
f 21/1/1 22/2/1 23/3/1 24/4/1
f 25/1/1 26/2/1 27/3/1 28/4/1
f 29/1/1 30/2/1 31/3/1 32/4/1
f 33/1/1 34/2/1 35/3/1 36/4/1
f 37/1/1 38/2/1 39/3/1 40/4/1
f 41/1/1 42/2/1 43/3/1 44/4/1
f 45/1/1 46/2/1 47/3/1 48/4/1
f 49/1/1 50/2/1 51/3/1 52/4/1
f 53/1/1 54/2/1 55/3/1 56/4/1
f 57/1/1 58/2/1 59/3/1 60/4/1
f 61/1/1 62/2/1 63/3/1 64/4/1

