# Tiled2Unity generated file. Do not modify by hand.
# Wavefront file for 'Fase1_mesh_0001.obj'

# Vertices (Count = 184)
v -1152 -3328 0
v -1280 -3328 0
v -1280 -3229 0
v -1152 -3229 0
v -1280 -3328 0
v -1408 -3328 0
v -1408 -3229 0
v -1280 -3229 0
v -1408 -3328 0
v -1536 -3328 0
v -1536 -3229 0
v -1408 -3229 0
v -1536 -3328 0
v -1664 -3328 0
v -1664 -3229 0
v -1536 -3229 0
v -1664 -3328 0
v -1792 -3328 0
v -1792 -3229 0
v -1664 -3229 0
v -1792 -3328 0
v -1920 -3328 0
v -1920 -3229 0
v -1792 -3229 0
v -1920 -3328 0
v -2048 -3328 0
v -2048 -3229 0
v -1920 -3229 0
v -2048 -3328 0
v -2176 -3328 0
v -2176 -3229 0
v -2048 -3229 0
v -2176 -3328 0
v -2304 -3328 0
v -2304 -3229 0
v -2176 -3229 0
v -2304 -3328 0
v -2432 -3328 0
v -2432 -3229 0
v -2304 -3229 0
v -2432 -3328 0
v -2560 -3328 0
v -2560 -3229 0
v -2432 -3229 0
v -5760 -3328 0
v -5888 -3328 0
v -5888 -3229 0
v -5760 -3229 0
v -5888 -3328 0
v -6016 -3328 0
v -6016 -3229 0
v -5888 -3229 0
v -6016 -3328 0
v -6144 -3328 0
v -6144 -3229 0
v -6016 -3229 0
v -6144 -3328 0
v -6272 -3328 0
v -6272 -3229 0
v -6144 -3229 0
v -6272 -3328 0
v -6400 -3328 0
v -6400 -3229 0
v -6272 -3229 0
v -6400 -3328 0
v -6528 -3328 0
v -6528 -3229 0
v -6400 -3229 0
v -6528 -3328 0
v -6656 -3328 0
v -6656 -3229 0
v -6528 -3229 0
v -6656 -3328 0
v -6784 -3328 0
v -6784 -3229 0
v -6656 -3229 0
v -7296 -3328 0
v -7424 -3328 0
v -7424 -3229 0
v -7296 -3229 0
v -7424 -3328 0
v -7552 -3328 0
v -7552 -3229 0
v -7424 -3229 0
v -7552 -3328 0
v -7680 -3328 0
v -7680 -3229 0
v -7552 -3229 0
v -7680 -3328 0
v -7808 -3328 0
v -7808 -3229 0
v -7680 -3229 0
v -7808 -3328 0
v -7936 -3328 0
v -7936 -3229 0
v -7808 -3229 0
v -8320 -3328 0
v -8448 -3328 0
v -8448 -3229 0
v -8320 -3229 0
v -8448 -3328 0
v -8576 -3328 0
v -8576 -3229 0
v -8448 -3229 0
v -8576 -3328 0
v -8704 -3328 0
v -8704 -3229 0
v -8576 -3229 0
v -8704 -3328 0
v -8832 -3328 0
v -8832 -3229 0
v -8704 -3229 0
v -8832 -3328 0
v -8960 -3328 0
v -8960 -3229 0
v -8832 -3229 0
v -9216 -3328 0
v -9344 -3328 0
v -9344 -3229 0
v -9216 -3229 0
v -9344 -3328 0
v -9472 -3328 0
v -9472 -3229 0
v -9344 -3229 0
v -9472 -3328 0
v -9600 -3328 0
v -9600 -3229 0
v -9472 -3229 0
v -9600 -3328 0
v -9728 -3328 0
v -9728 -3229 0
v -9600 -3229 0
v -9728 -3328 0
v -9856 -3328 0
v -9856 -3229 0
v -9728 -3229 0
v -9856 -3328 0
v -9984 -3328 0
v -9984 -3229 0
v -9856 -3229 0
v -9984 -3328 0
v -10112 -3328 0
v -10112 -3229 0
v -9984 -3229 0
v -10112 -3328 0
v -10240 -3328 0
v -10240 -3229 0
v -10112 -3229 0
v -10240 -3328 0
v -10368 -3328 0
v -10368 -3229 0
v -10240 -3229 0
v -10368 -3328 0
v -10496 -3328 0
v -10496 -3229 0
v -10368 -3229 0
v -10496 -3328 0
v -10624 -3328 0
v -10624 -3229 0
v -10496 -3229 0
v -18560 -3328 0
v -18688 -3328 0
v -18688 -3229 0
v -18560 -3229 0
v -18688 -3328 0
v -18816 -3328 0
v -18816 -3229 0
v -18688 -3229 0
v -18816 -3328 0
v -18944 -3328 0
v -18944 -3229 0
v -18816 -3229 0
v -18944 -3328 0
v -19072 -3328 0
v -19072 -3229 0
v -18944 -3229 0
v -19072 -3328 0
v -19200 -3328 0
v -19200 -3229 0
v -19072 -3229 0
v -19200 -3328 0
v -19328 -3328 0
v -19328 -3229 0
v -19200 -3229 0

# Texture cooridinates (Count = 4)
vt 0 0
vt 1 0
vt 1 1
vt 0 1

# Normal
vn 0 0 -1

# Mesh description
g Fase1_mesh_0001

# Faces
f 1/1/1 2/2/1 3/3/1 4/4/1
f 5/1/1 6/2/1 7/3/1 8/4/1
f 9/1/1 10/2/1 11/3/1 12/4/1
f 13/1/1 14/2/1 15/3/1 16/4/1
f 17/1/1 18/2/1 19/3/1 20/4/1
f 21/1/1 22/2/1 23/3/1 24/4/1
f 25/1/1 26/2/1 27/3/1 28/4/1
f 29/1/1 30/2/1 31/3/1 32/4/1
f 33/1/1 34/2/1 35/3/1 36/4/1
f 37/1/1 38/2/1 39/3/1 40/4/1
f 41/1/1 42/2/1 43/3/1 44/4/1
f 45/1/1 46/2/1 47/3/1 48/4/1
f 49/1/1 50/2/1 51/3/1 52/4/1
f 53/1/1 54/2/1 55/3/1 56/4/1
f 57/1/1 58/2/1 59/3/1 60/4/1
f 61/1/1 62/2/1 63/3/1 64/4/1
f 65/1/1 66/2/1 67/3/1 68/4/1
f 69/1/1 70/2/1 71/3/1 72/4/1
f 73/1/1 74/2/1 75/3/1 76/4/1
f 77/1/1 78/2/1 79/3/1 80/4/1
f 81/1/1 82/2/1 83/3/1 84/4/1
f 85/1/1 86/2/1 87/3/1 88/4/1
f 89/1/1 90/2/1 91/3/1 92/4/1
f 93/1/1 94/2/1 95/3/1 96/4/1
f 97/1/1 98/2/1 99/3/1 100/4/1
f 101/1/1 102/2/1 103/3/1 104/4/1
f 105/1/1 106/2/1 107/3/1 108/4/1
f 109/1/1 110/2/1 111/3/1 112/4/1
f 113/1/1 114/2/1 115/3/1 116/4/1
f 117/1/1 118/2/1 119/3/1 120/4/1
f 121/1/1 122/2/1 123/3/1 124/4/1
f 125/1/1 126/2/1 127/3/1 128/4/1
f 129/1/1 130/2/1 131/3/1 132/4/1
f 133/1/1 134/2/1 135/3/1 136/4/1
f 137/1/1 138/2/1 139/3/1 140/4/1
f 141/1/1 142/2/1 143/3/1 144/4/1
f 145/1/1 146/2/1 147/3/1 148/4/1
f 149/1/1 150/2/1 151/3/1 152/4/1
f 153/1/1 154/2/1 155/3/1 156/4/1
f 157/1/1 158/2/1 159/3/1 160/4/1
f 161/1/1 162/2/1 163/3/1 164/4/1
f 165/1/1 166/2/1 167/3/1 168/4/1
f 169/1/1 170/2/1 171/3/1 172/4/1
f 173/1/1 174/2/1 175/3/1 176/4/1
f 177/1/1 178/2/1 179/3/1 180/4/1
f 181/1/1 182/2/1 183/3/1 184/4/1

