# Tiled2Unity generated file. Do not modify by hand.
# Wavefront file for 'Fase1_mesh_0008.obj'

# Vertices (Count = 36)
v -13440 -2304 0
v -13568 -2304 0
v -13568 -2176 0
v -13440 -2176 0
v -6272 -2560 0
v -6400 -2560 0
v -6400 -2432 0
v -6272 -2432 0
v -5248 -2816 0
v -5376 -2816 0
v -5376 -2688 0
v -5248 -2688 0
v -4352 -3072 0
v -4480 -3072 0
v -4480 -2944 0
v -4352 -2944 0
v -2048 -3328 0
v -2176 -3328 0
v -2176 -3200 0
v -2048 -3200 0
v -5632 -3328 0
v -5760 -3328 0
v -5760 -3200 0
v -5632 -3200 0
v -6912 -3328 0
v -7040 -3328 0
v -7040 -3200 0
v -6912 -3200 0
v -10624 -3328 0
v -10752 -3328 0
v -10752 -3200 0
v -10624 -3200 0
v -14336 -3328 0
v -14464 -3328 0
v -14464 -3200 0
v -14336 -3200 0

# Texture cooridinates (Count = 4)
vt 0 0
vt 1 0
vt 1 1
vt 0 1

# Normal
vn 0 0 -1

# Mesh description
g Fase1_mesh_0008

# Faces
f 1/1/1 2/2/1 3/3/1 4/4/1
f 5/1/1 6/2/1 7/3/1 8/4/1
f 9/1/1 10/2/1 11/3/1 12/4/1
f 13/1/1 14/2/1 15/3/1 16/4/1
f 17/1/1 18/2/1 19/3/1 20/4/1
f 21/1/1 22/2/1 23/3/1 24/4/1
f 25/1/1 26/2/1 27/3/1 28/4/1
f 29/1/1 30/2/1 31/3/1 32/4/1
f 33/1/1 34/2/1 35/3/1 36/4/1

