# Tiled2Unity generated file. Do not modify by hand.
# Wavefront file for 'Fase1_mesh_0005.obj'

# Vertices (Count = 92)
v -15360 -2048 0
v -15488 -2048 0
v -15488 -1920 0
v -15360 -1920 0
v -13440 -2304 0
v -13568 -2304 0
v -13568 -2176 0
v -13440 -2176 0
v -19968 -2304 0
v -20096 -2304 0
v -20096 -2176 0
v -19968 -2176 0
v -5888 -2432 0
v -6016 -2432 0
v -6016 -2304 0
v -5888 -2304 0
v -12928 -2432 0
v -13056 -2432 0
v -13056 -2304 0
v -12928 -2304 0
v -17280 -2432 0
v -17408 -2432 0
v -17408 -2304 0
v -17280 -2304 0
v -22400 -2432 0
v -22528 -2432 0
v -22528 -2304 0
v -22400 -2304 0
v -12416 -2560 0
v -12544 -2560 0
v -12544 -2432 0
v -12416 -2432 0
v -4992 -2688 0
v -5120 -2688 0
v -5120 -2560 0
v -4992 -2560 0
v -11904 -2688 0
v -12032 -2688 0
v -12032 -2560 0
v -11904 -2560 0
v -16384 -2688 0
v -16512 -2688 0
v -16512 -2560 0
v -16384 -2560 0
v -21760 -2688 0
v -21888 -2688 0
v -21888 -2560 0
v -21760 -2560 0
v -20864 -2816 0
v -20992 -2816 0
v -20992 -2688 0
v -20864 -2688 0
v -2048 -2944 0
v -2176 -2944 0
v -2176 -2816 0
v -2048 -2816 0
v -4096 -2944 0
v -4224 -2944 0
v -4224 -2816 0
v -4096 -2816 0
v -15360 -2944 0
v -15488 -2944 0
v -15488 -2816 0
v -15360 -2816 0
v -1152 -3328 0
v -1280 -3328 0
v -1280 -3200 0
v -1152 -3200 0
v -5760 -3328 0
v -5888 -3328 0
v -5888 -3200 0
v -5760 -3200 0
v -7296 -3328 0
v -7424 -3328 0
v -7424 -3200 0
v -7296 -3200 0
v -8320 -3328 0
v -8448 -3328 0
v -8448 -3200 0
v -8320 -3200 0
v -9216 -3328 0
v -9344 -3328 0
v -9344 -3200 0
v -9216 -3200 0
v -9984 -3328 0
v -10112 -3328 0
v -10112 -3200 0
v -9984 -3200 0
v -18560 -3328 0
v -18688 -3328 0
v -18688 -3200 0
v -18560 -3200 0

# Texture cooridinates (Count = 4)
vt 0 0
vt 1 0
vt 1 1
vt 0 1

# Normal
vn 0 0 -1

# Mesh description
g Fase1_mesh_0005

# Faces
f 1/1/1 2/2/1 3/3/1 4/4/1
f 5/1/1 6/2/1 7/3/1 8/4/1
f 9/1/1 10/2/1 11/3/1 12/4/1
f 13/1/1 14/2/1 15/3/1 16/4/1
f 17/1/1 18/2/1 19/3/1 20/4/1
f 21/1/1 22/2/1 23/3/1 24/4/1
f 25/1/1 26/2/1 27/3/1 28/4/1
f 29/1/1 30/2/1 31/3/1 32/4/1
f 33/1/1 34/2/1 35/3/1 36/4/1
f 37/1/1 38/2/1 39/3/1 40/4/1
f 41/1/1 42/2/1 43/3/1 44/4/1
f 45/1/1 46/2/1 47/3/1 48/4/1
f 49/1/1 50/2/1 51/3/1 52/4/1
f 53/1/1 54/2/1 55/3/1 56/4/1
f 57/1/1 58/2/1 59/3/1 60/4/1
f 61/1/1 62/2/1 63/3/1 64/4/1
f 65/1/1 66/2/1 67/3/1 68/4/1
f 69/1/1 70/2/1 71/3/1 72/4/1
f 73/1/1 74/2/1 75/3/1 76/4/1
f 77/1/1 78/2/1 79/3/1 80/4/1
f 81/1/1 82/2/1 83/3/1 84/4/1
f 85/1/1 86/2/1 87/3/1 88/4/1
f 89/1/1 90/2/1 91/3/1 92/4/1

